<?xml version="1.0" encoding="UTF-8"?><svg id="Layer_1" xmlns="http://www.w3.org/2000/svg" viewBox="0 0 1000 1000"><defs><style>.cls-1{fill:#d73233;fill-rule:evenodd;}</style></defs><path class="cls-1" d="m533.74,153.58h67.49v251.21l67.49-38.97v-212.25h67.49v251.22l-74.39,42.95,74.39,42.95v198.47l-67.49,38.97v-198.47l-67.49-38.97v276.4l-67.49,38.97V153.58h0Zm-269.97,0h202.47v226.3l-67.49-38.97v-119.84h-67.49v158.81l134.98,77.93v348.25l-202.47-116.9v-192.38l67.49,38.97v114.44l67.49,38.97v-192.37l-134.98-77.94V153.58h0ZM871.21,18.59v67.49H128.79V18.59h742.41Zm-337.46,865.39h0s269.97-155.86,269.97-155.86V153.58h67.49v613.52l-371.21,214.31-371.2-214.31V153.58h67.49v574.55l269.97,155.86h0s33.74,19.48,33.74,19.48l33.75-19.48h0Z"/></svg>